<svg xmlns="http://www.w3.org/2000/svg" xmlns:xlink="http://www.w3.org/1999/xlink" width="500" zoomAndPan="magnify" viewBox="0 0 375 374.999991" height="500" preserveAspectRatio="xMidYMid meet" version="1.0"><defs><g/><clipPath id="6ddb2c801e"><path d="M 156 115 L 234.683594 115 L 234.683594 276.523438 L 156 276.523438 Z M 156 115 " clip-rule="nonzero"/></clipPath><clipPath id="5f7b0ddd01"><path d="M 140.183594 108 L 201 108 L 201 158 L 140.183594 158 Z M 140.183594 108 " clip-rule="nonzero"/></clipPath><clipPath id="7e51675980"><path d="M 140.183594 127 L 203 127 L 203 176 L 140.183594 176 Z M 140.183594 127 " clip-rule="nonzero"/></clipPath><clipPath id="6f0143c2de"><path d="M 140.183594 138 L 198 138 L 198 190 L 140.183594 190 Z M 140.183594 138 " clip-rule="nonzero"/></clipPath><clipPath id="28e0cd64be"><path d="M 140.183594 135 L 198 135 L 198 189 L 140.183594 189 Z M 140.183594 135 " clip-rule="nonzero"/></clipPath><clipPath id="70e5a67c82"><path d="M 140.183594 85.273438 L 212 85.273438 L 212 154 L 140.183594 154 Z M 140.183594 85.273438 " clip-rule="nonzero"/></clipPath><clipPath id="91d4a8578b"><path d="M 150 85.273438 L 219 85.273438 L 219 129 L 150 129 Z M 150 85.273438 " clip-rule="nonzero"/></clipPath><clipPath id="80a947785c"><path d="M 160 85.273438 L 206 85.273438 L 206 140 L 160 140 Z M 160 85.273438 " clip-rule="nonzero"/></clipPath><clipPath id="552fbeac0c"><path d="M 140.183594 85.273438 L 170 85.273438 L 170 146 L 140.183594 146 Z M 140.183594 85.273438 " clip-rule="nonzero"/></clipPath><clipPath id="07b5b5d6d8"><path d="M 176 85.273438 L 211 85.273438 L 211 138 L 176 138 Z M 176 85.273438 " clip-rule="nonzero"/></clipPath></defs><rect x="-37.5" width="450" fill="#ffffff" y="-37.499999" height="449.999989" fill-opacity="1"/><rect x="-37.5" width="450" fill="#e5c1cd" y="-37.499999" height="449.999989" fill-opacity="1"/><g fill="#fff4f7" fill-opacity="1"><g transform="translate(93.292967, 278.303981)"><g><path d="M 207.984375 -106.625 C 207.984375 -91.851562 205.125 -77.40625 199.40625 -63.28125 C 193.6875 -49.15625 185.835938 -37.203125 175.859375 -27.421875 C 156.847656 -8.585938 129.707031 0.828125 94.4375 0.828125 C 87.789062 0.828125 81.097656 0.6875 74.359375 0.40625 C 67.617188 0.132812 60.925781 0 54.28125 0 C 41.351562 0 28.519531 0.273438 15.78125 0.828125 L 15.78125 -5.546875 L 24.375 -9.96875 C 28.988281 -12.375 31.296875 -17.820312 31.296875 -26.3125 L 31.296875 -157.59375 C 31.296875 -164.789062 31.019531 -170.097656 30.46875 -173.515625 C 29.914062 -176.929688 28.625 -179.238281 26.59375 -180.4375 C 24.5625 -181.632812 21.421875 -182.328125 17.171875 -182.515625 L 6.09375 -183.34375 L 6.09375 -191.65625 C 25.289062 -191.101562 44.304688 -190.828125 63.140625 -190.828125 C 71.265625 -190.828125 79.34375 -190.960938 87.375 -191.234375 C 95.40625 -191.515625 103.390625 -191.65625 111.328125 -191.65625 C 130.898438 -191.65625 147.882812 -188.144531 162.28125 -181.125 C 176.6875 -174.113281 187.90625 -164.238281 195.9375 -151.5 C 203.96875 -138.757812 207.984375 -123.800781 207.984375 -106.625 Z M 178.359375 -99.421875 C 178.359375 -126.929688 171.800781 -147.242188 158.6875 -160.359375 C 151.300781 -167.742188 141.5625 -172.957031 129.46875 -176 C 117.375 -179.050781 103.664062 -180.578125 88.34375 -180.578125 C 81.507812 -180.578125 75.597656 -180.390625 70.609375 -180.015625 C 65.628906 -179.648438 61.296875 -179.097656 57.609375 -178.359375 L 57.609375 -13.578125 C 61.296875 -12.835938 65.398438 -12.28125 69.921875 -11.90625 C 74.453125 -11.539062 79.851562 -11.359375 86.125 -11.359375 C 96.65625 -11.359375 105.703125 -11.957031 113.265625 -13.15625 C 120.835938 -14.351562 127.578125 -16.289062 133.484375 -18.96875 C 139.398438 -21.644531 145.125 -25.203125 150.65625 -29.640625 C 169.125 -44.773438 178.359375 -68.035156 178.359375 -99.421875 Z M 178.359375 -99.421875 "/></g></g></g><g clip-path="url(#6ddb2c801e)"><path stroke-linecap="butt" transform="matrix(0.00891569, 0, 0, -0.00893113, 140.360664, 276.531575)" fill="none" stroke-linejoin="miter" d="M 6022.421844 9.221216 C 5729.311344 933.393739 5435.762711 1858.003636 5794.593055 3032.354428 C 6153.423399 4206.70522 7164.632719 5630.796907 7306.587581 6794.650709 C 7448.542442 7958.504511 6721.680976 8862.557802 5885.724571 9153.849284 C 5050.206297 9445.57814 4105.593085 9124.545186 3701.635115 8234.487881 C 3297.239013 7344.430577 3433.060023 5884.911548 4120.489582 4926.186432 C 4807.48101 3967.461316 6046.51912 3509.530113 6943.814046 3288.655942 C 7841.108972 3067.781771 8397.098845 3083.527256 8796.23736 3280.783199 C 9195.814006 3478.039142 9438.977426 3856.805543 9473.589877 4172.152627 C 9508.202328 4487.062337 9334.701942 4738.990105 9403.050578 4955.927905 C 9471.837348 5173.303079 9782.47314 5356.563035 9861.775084 5581.810952 C 9941.077028 5807.05887 9789.045124 6073.857374 9575.236568 6197.634385 C 9360.989879 6321.411395 9084.966537 6301.729539 8757.681718 6261.491076 C 8429.958767 6221.252613 8051.41247 6160.894918 8033.887179 6079.105869 C 8016.800019 5997.316819 8360.733865 5894.533789 8682.322965 5745.389052 C 9003.473932 5596.681689 9301.84202 5401.175244 9485.419449 5430.479342 C 9668.558745 5459.78344 9737.345514 5713.898081 9709.305048 5927.774258 C 9681.264581 6141.650436 9556.396879 6316.1629 9641.394543 6505.546101 C 9726.392207 6695.366676 10021.693369 6900.495361 10034.399205 7047.8906 C 10047.105042 7195.723214 9777.653685 7286.259756 9527.042016 7221.96569 C 9276.430347 7157.671624 9044.220235 6938.546951 8779.588333 6732.543516 C 8514.956431 6526.102707 8217.90274 6333.220509 8282.746318 6306.978034 C 8347.589897 6281.172932 8774.330745 6422.007553 9127.465369 6569.402792 C 9480.161861 6716.798031 9759.252129 6870.753889 9842.935396 7029.520867 C 9927.056795 7188.725221 9815.771194 7353.178069 9700.542402 7541.249146 C 9585.751743 7729.320222 9467.017893 7941.009527 9375.010112 8175.004936 C 9283.002332 8409.43772 9217.720621 8666.176608 9043.782102 8765.898016 C 8869.843584 8865.619424 8587.686391 8808.323352 8489.98289 8622.876523 C 8392.27939 8436.99232 8478.591451 8122.957359 8631.937752 8038.106687 C 8784.84592 7953.256016 9004.788329 8098.027007 9222.978208 8175.004936 C 9441.60622 8252.42024 9658.481702 8262.91723 9642.70894 8169.319066 C 9627.37431 8075.720903 9379.829567 7878.46496 9466.57976 7867.967969 C 9552.891821 7857.470979 9973.93695 8034.170316 10221.919825 8267.728351 C 10469.9027 8501.72376 10544.823321 8793.015241 10400.677798 9012.577289 C 10256.094143 9232.576711 9892.444344 9380.846699 9618.611664 9652.893698 C 9344.340852 9924.503323 9159.887159 10319.889958 8978.500391 10734.083701 C 8797.113624 11148.277444 8618.793783 11581.278295 8562.274718 12009.468025 C 8506.193785 12437.657756 8571.913628 12861.036365 8713.868489 12998.809363 C 8855.823351 13137.019736 9073.575098 12989.624497 9144.114396 12776.185693 C 9214.653695 12562.74689 9137.980544 12283.701897 8865.900393 12313.005995 C 8594.258375 12342.310093 8127.209356 12680.400657 7594.440494 12438.532505 C 7061.233499 12196.226978 6461.868529 11373.087987 6006.21095 10996.508459 C 5550.115238 10620.366306 5237.726917 10690.783616 4990.182174 10917.781032 C 4742.199299 11144.778448 4559.936267 11528.355969 4712.406303 12052.76811 C 4864.87634 12577.180252 5352.955708 13241.989639 5464.679442 13973.279965 C 5575.965043 14705.007665 5311.771273 15502.341555 5047.139371 16300.112819 " stroke="#231f20" stroke-width="52.598" stroke-opacity="1" stroke-miterlimit="22.926001"/></g><g clip-path="url(#5f7b0ddd01)"><path stroke-linecap="butt" transform="matrix(0.00938798, 0, 0, -0.00940424, 140.360664, 276.531575)" fill="none" stroke-linejoin="miter" d="M 4423.737901 15925.35997 C 4539.827177 15901.26845 4652.171638 16002.618982 4725.819673 15869.700251 C 4799.467708 15736.366149 4834.003228 15368.762784 4715.833499 15086.725852 C 4597.247679 14805.104291 4325.956611 14609.049162 3990.587591 14474.468947 C 3655.218571 14339.888732 3255.771599 14266.368059 2940.791018 14260.968236 C 2625.394346 14255.153041 2394.047975 14317.458696 2250.91281 14494.822128 C 2107.361555 14672.600931 2052.021506 14965.43751 1952.159763 15192.230094 C 1851.881929 15418.607308 1707.082402 15578.940527 1669.634248 15765.442121 C 1631.770004 15951.943716 1701.257133 16165.029056 1898.900166 16232.734535 C 2096.95929 16300.024642 2422.758226 16221.519517 2735.242264 16188.289834 C 3047.31021 16154.64478 3345.647167 16165.859798 3565.343002 16183.305382 C 3785.454927 16200.750965 3927.34182 16224.842485 4057.994267 16161.706088 C 4188.646714 16098.985062 4307.648624 15949.45149 4423.737901 15925.35997 Z M 4423.737901 15925.35997 " stroke="#231f20" stroke-width="49.945999" stroke-opacity="1" stroke-miterlimit="22.926001"/></g><g clip-path="url(#7e51675980)"><path stroke-linecap="butt" transform="matrix(0.00827135, 0, 0, -0.00828568, 140.360664, 276.531575)" fill="none" stroke-linejoin="miter" d="M 5530.041468 14012.831808 C 5641.967751 14366.416388 5754.366295 14720.000967 5595.685997 14937.809069 C 5437.477961 15155.61717 5008.191081 15237.648793 4506.647994 15162.217415 C 4005.104907 15087.257485 3430.833349 14854.834554 2842.393908 14946.295099 C 2253.954466 15037.755643 1651.347141 15452.628217 1193.724494 15747.282034 C 735.629584 16041.464404 421.574826 16215.428018 410.712782 16077.294308 C 399.850737 15939.160599 691.709144 15489.401013 1044.489451 15058.970718 C 1397.742021 14629.011869 1811.916491 14218.853756 2321.015783 14069.40534 C 2830.115075 13919.956925 3434.611451 14030.74676 3848.313659 14241.011723 C 4262.488129 14451.276687 4485.396168 14761.016779 4679.023914 14949.123775 C 4872.651659 15137.702218 5036.526849 15203.704673 5162.621015 15201.347442 C 5288.715181 15198.518766 5377.028323 15126.858957 5465.341466 15055.199149 " stroke="#231f20" stroke-width="56.693001" stroke-opacity="1" stroke-miterlimit="22.926001"/></g><g clip-path="url(#6f0143c2de)"><path stroke-linecap="butt" transform="matrix(0.00827135, 0, 0, -0.00828568, 140.360664, 276.531575)" fill="none" stroke-linejoin="miter" d="M 4245.014406 14202.353142 C 3921.514392 13912.413787 3505.923133 13677.633626 3129.529687 13434.367435 C 2752.663977 13191.101244 2414.996079 12940.291915 2074.966868 12783.300362 C 1734.937656 12626.780254 1392.54713 12564.549368 1371.295305 12486.76076 C 1350.515742 12409.443599 1650.874879 12316.09727 2196.810668 12376.913818 C 2742.274195 12437.730365 3533.786638 12652.70979 4052.803449 12998.751232 C 4571.347997 13344.792675 4817.869175 13821.424688 4935.462611 14207.067603 C 5053.056046 14592.710519 5042.194002 14887.364335 4920.822464 14862.377692 C 4799.923189 14836.919602 4568.51442 14492.292498 4245.014406 14202.353142 Z M 4245.014406 14202.353142 " stroke="#231f20" stroke-width="56.693001" stroke-opacity="1" stroke-miterlimit="22.926001"/></g><g clip-path="url(#28e0cd64be)"><path stroke-linecap="butt" transform="matrix(0.00827135, 0, 0, -0.00828568, 140.360664, 276.531575)" fill="none" stroke-linejoin="miter" d="M 1371.295305 12486.76076 C 2145.334024 12710.226215 2918.90048 12933.220223 3525.758171 13278.318773 C 4132.143598 13622.945877 4571.820259 14089.677523 4794.728298 14427.704381 C 5017.636337 14764.788348 5024.248016 14973.167527 5030.859695 15182.018152 " stroke="#231f20" stroke-width="56.693001" stroke-opacity="1" stroke-miterlimit="22.926001"/></g><path stroke-linecap="butt" transform="matrix(0.00827135, 0, 0, -0.00828568, 140.360664, 276.531575)" fill="none" stroke-linejoin="miter" d="M 5079.0305 12990.736648 C 5366.166279 13353.750151 5653.302058 13716.763653 5977.274334 13923.728493 C 6301.718874 14130.693334 6662.999911 14181.609514 6929.82839 14418.275459 C 7197.129131 14655.412851 7369.505051 15078.300008 7752.037914 15330.995122 C 8134.098514 15583.218789 8726.316058 15665.250411 8798.572265 15699.194531 C 8870.828473 15733.610097 8423.123344 15719.466713 7991.475151 15659.121612 C 7559.826957 15599.247956 7144.235698 15493.172582 6837.264882 15254.620852 C 6530.766329 15015.597676 6332.415955 14644.56959 6141.149524 14361.701926 C 5949.883092 14079.305709 5765.700603 13885.541359 5676.915197 13763.436817 C 5587.657529 13641.332276 5593.796946 13591.358988 5720.363374 13625.774554 C 5847.402066 13660.19012 6094.86777 13779.465985 6406.561214 13888.841482 C 6717.782395 13998.216978 7093.231316 14097.692107 7375.172204 14338.129621 C 7657.585355 14579.038582 7846.490473 14960.909928 8074.12114 15200.875996 C 8301.751806 15440.842064 8567.635759 15538.902855 8833.519712 15636.963645 " stroke="#231f20" stroke-width="56.693001" stroke-opacity="1" stroke-miterlimit="22.926001"/><g clip-path="url(#70e5a67c82)"><path stroke-linecap="butt" transform="matrix(0.0113566, 0, 0, -0.0113762, 140.360664, 276.531575)" fill="none" stroke-linejoin="miter" d="M 1613.766387 12560.136047 C 1474.116933 12395.318758 1334.467479 12230.50147 1180.715494 12180.026175 C 1026.619544 12129.55088 858.0771 12193.760949 725.994858 12395.662128 C 593.568652 12597.906676 497.946612 12938.185703 346.602376 13217.688355 C 195.25814 13497.191008 -11.808292 13715.917285 25.339839 13908.204121 C 62.144005 14100.490958 342.81877 14266.338355 551.948987 14350.807216 C 761.423168 14435.619445 899.008837 14439.053139 973.649062 14559.575781 C 1048.289287 14680.441793 1059.984069 14918.053384 1030.747115 15144.333787 C 1001.854124 15370.957559 932.029397 15586.250142 1028.68333 15802.572834 C 1125.681226 16018.895525 1388.813818 16236.591694 1598.975927 16245.175928 C 1809.482001 16253.760162 1967.017592 16053.232461 2231.870004 16064.907019 C 2496.722417 16076.581576 2868.547687 16300.115024 3113.450178 16193.670525 C 3358.008705 16087.569396 3475.300487 15651.833689 3483.211663 15249.748178 C 3490.778875 14848.006037 3389.309444 14479.914092 3453.28678 14189.42362 C 3516.920152 13898.58978 3745.656327 13685.357412 3820.984481 13483.456234 C 3896.312634 13281.898424 3818.232767 13092.015173 3963.385648 13098.53919 C 4108.538529 13105.063208 4476.924157 13307.994495 4689.494016 13628.014731 C 4901.71991 13947.691597 4958.130035 14384.457412 4939.899933 14747.398817 C 4921.669832 15110.340221 4829.14347 15399.800585 4801.626336 15600.671655 C 4774.109202 15801.542726 4811.945261 15914.511243 4649.938136 15833.132706 C 4488.274975 15752.097539 4126.424666 15477.058689 3948.939153 15151.544543 C 3771.109676 14825.687029 3777.301031 14449.354219 3788.995813 14184.27308 C 3800.34663 13919.53531 3817.200875 13766.392579 3842.310259 13626.984623 C 3867.419644 13487.576666 3900.784169 13362.246852 3960.633935 13433.324308 C 4020.483701 13504.401764 4106.818708 13772.229858 4051.78444 14033.533935 C 3996.406209 14294.494642 3799.658702 14548.587962 3566.107029 14657.436047 C 3332.555356 14766.6275 3062.199516 14730.230349 2942.843949 14591.509131 C 2823.144417 14452.444544 2854.789121 14211.399259 2743.000765 14032.503827 C 2631.212409 13853.265025 2375.990993 13736.176076 2328.867901 13635.568856 C 2282.088774 13534.618267 2443.064006 13450.149406 2604.383203 13366.023915 " stroke="#231f20" stroke-width="41.292999" stroke-opacity="1" stroke-miterlimit="22.926001"/></g><g clip-path="url(#91d4a8578b)"><path stroke-linecap="butt" transform="matrix(0.0116982, 0, 0, -0.0117184, 140.360664, 276.531575)" fill="none" stroke-linejoin="miter" d="M 4786.296402 13951.072147 C 5080.145838 14272.08084 5373.661353 14592.75619 5375.330952 14954.099308 C 5376.666632 15315.442426 5085.488555 15717.453312 4819.354464 15945.792829 C 4553.220373 16174.132345 4311.796348 16228.133808 4235.996551 16084.46325 C 4159.862833 15940.792693 4249.019424 15599.450117 4242.007107 15381.777556 C 4234.660872 15164.104995 4131.479649 15070.435792 4153.518357 15155.438094 C 4175.890984 15240.107053 4323.817462 15503.447517 4330.829778 15720.786736 C 4338.176014 15938.459297 4204.274169 16110.463954 3993.904686 16200.799734 C 3783.535204 16291.135514 3496.364165 16300.135757 3321.724103 16206.133212 C 3147.084041 16112.464009 3084.641036 15916.125359 2927.030884 15876.124276 C 2769.420733 15836.123192 2516.643434 15952.126334 2374.059674 15931.125765 C 2231.475914 15910.458539 2199.085692 15752.45426 2166.361551 15594.783324 " stroke="#231f20" stroke-width="40.084999" stroke-opacity="1" stroke-miterlimit="22.926001"/></g><g clip-path="url(#80a947785c)"><path stroke-linecap="butt" transform="matrix(0.0113963, 0, 0, -0.011416, 140.360664, 276.531575)" fill="none" stroke-linejoin="miter" d="M 4341.702276 16009.624386 C 4143.240832 16154.705789 3944.779388 16300.129365 3787.107084 16251.198609 C 3629.092013 16202.267853 3511.866083 15958.982764 3505.696297 15746.83543 C 3499.869277 15535.030268 3605.098402 15354.020688 3577.677132 15179.170223 C 3550.255861 15004.661932 3390.184196 14835.970584 3276.72869 14632.377577 C 3163.273184 14429.126744 3096.433837 14190.289906 3082.03767 13970.272589 C 3067.298738 13750.255273 3104.660218 13549.057478 3142.364465 13347.517511 " stroke="#231f20" stroke-width="41.146" stroke-opacity="1" stroke-miterlimit="22.926001"/></g><path stroke-linecap="butt" transform="matrix(0.0102507, 0, 0, -0.0102684, 140.360664, 276.531575)" fill="none" stroke-linejoin="miter" d="M 2622.413029 15162.541001 C 2539.720365 15345.139337 2457.408773 15528.118087 2424.255492 15719.085514 C 2390.72114 15910.052942 2406.726172 16109.009046 2464.268072 16204.49276 C 2521.809972 16299.976473 2621.269813 16291.987796 2653.660948 16243.675319 C 2685.671012 16194.98243 2650.612371 16105.585327 2604.121564 16073.250205 C 2557.630758 16040.915083 2499.326713 16065.641941 2441.022669 16089.988386 " stroke="#231f20" stroke-width="45.748001" stroke-opacity="1" stroke-miterlimit="22.926001"/><path stroke-linecap="butt" transform="matrix(0.00977342, 0, 0, -0.00979036, 140.360664, 276.531575)" fill="none" stroke-linejoin="miter" d="M 2627.369584 15551.051556 C 2550.231193 15723.81405 2472.69312 15896.576544 2364.779308 16034.626943 C 2256.865496 16172.677343 2117.776583 16276.015647 2020.254472 16287.985335 C 1922.332679 16299.955023 1865.578008 16220.556094 1873.971304 16167.490478 C 1882.364601 16114.025872 1955.905865 16087.29357 1995.474263 16109.237997 C 2035.042661 16131.581414 2040.638192 16202.601562 2046.233723 16273.22272 " stroke="#231f20" stroke-width="47.98" stroke-opacity="1" stroke-miterlimit="22.926001"/><path stroke-linecap="butt" transform="matrix(0.0105708, 0, 0, -0.0105891, 140.360664, 276.531575)" fill="none" stroke-linejoin="miter" d="M 3048.15345 15377.731749 C 2965.747654 15561.440792 2883.341858 15745.149834 2861.539427 15911.151981 C 2839.736997 16077.154128 2878.907465 16225.449379 2922.512326 16262.707638 C 2966.117187 16299.965898 3014.895506 16226.187166 3010.09158 16191.511162 C 3005.287655 16157.204052 2947.640551 16161.630776 2889.623914 16166.426393 " stroke="#231f20" stroke-width="44.359001" stroke-opacity="1" stroke-miterlimit="22.926001"/><path stroke-linecap="butt" transform="matrix(0.0103086, 0, 0, -0.0103264, 140.360664, 276.531575)" fill="none" stroke-linejoin="miter" d="M 4697.492799 13370.594402 C 4596.318001 13509.800173 4595.939069 13870.297726 4757.364027 14155.139969 C 4918.788985 14439.603935 5241.259969 14648.412591 5573.583181 14819.393592 C 5905.906392 14990.374593 6247.702899 15123.149662 6462.557245 15420.475031 C 6677.790522 15717.8004 6766.460569 16179.676068 6823.300343 16239.82204 C 6880.140117 16299.968012 6905.528549 15958.384286 6886.581958 15553.2501 C 6867.635367 15148.494191 6804.353752 14680.187821 6516.365564 14309.855078 C 6228.377376 13939.900611 5716.061547 13667.541495 5358.728835 13490.508069 C 5001.017191 13313.474643 4798.667596 13231.388632 4697.492799 13370.594402 Z M 4697.492799 13370.594402 " stroke="#231f20" stroke-width="45.490002" stroke-opacity="1" stroke-miterlimit="22.926001"/><path stroke-linecap="butt" transform="matrix(0.0104765, 0, 0, -0.0104946, 140.360664, 276.531575)" fill="none" stroke-linejoin="miter" d="M 5958.158516 14826.798629 C 6095.743365 15087.348345 6233.701074 15348.270275 6290.002733 15615.519841 C 6346.677251 15882.769407 6321.69572 16156.718822 6278.071255 16228.556101 C 6234.446791 16300.021166 6172.179393 16169.374094 6013.714458 16027.188392 C 5854.876664 15885.374904 5599.841333 15731.650571 5420.869171 15443.557028 C 5241.897009 15155.463485 5138.988016 14732.256304 5035.706164 14468.728877 C 4932.424312 14205.573663 4828.396743 14101.353777 4724.742032 13997.506105 " stroke="#231f20" stroke-width="44.761002" stroke-opacity="1" stroke-miterlimit="22.926001"/><path stroke-linecap="butt" transform="matrix(0.0102705, 0, 0, -0.0102883, 140.360664, 276.531575)" fill="none" stroke-linejoin="miter" d="M 4736.95501 12831.246695 C 4707.669165 13098.160269 4678.002984 13365.073843 4873.115172 13648.313568 C 5068.607697 13931.553293 5488.498254 14231.498845 5831.941346 14495.754674 C 6175.384438 14760.010503 6441.999729 14988.576608 6610.108087 15228.53305 C 6778.216444 15468.869171 6847.817868 15720.975306 6871.018343 15901.322316 C 6894.218817 16081.669326 6871.398678 16191.016565 6848.578539 16299.984127 " stroke="#231f20" stroke-width="45.659" stroke-opacity="1" stroke-miterlimit="22.926001"/><path stroke-linecap="butt" transform="matrix(0.0103838, 0, 0, -0.0104018, 140.360664, 276.531575)" fill="none" stroke-linejoin="miter" d="M 6195.645224 16300.111165 C 6141.098378 16021.840015 6086.927717 15743.193331 5932.315621 15454.031678 C 5778.079711 15164.49449 5523.778552 14864.066798 5269.101208 14564.014641 " stroke="#231f20" stroke-width="45.159" stroke-opacity="1" stroke-miterlimit="22.926001"/><path stroke-linecap="butt" transform="matrix(0.0100249, 0, 0, -0.0100422, 140.360664, 276.531575)" fill="none" stroke-linejoin="miter" d="M 2879.037765 15664.33372 C 2829.94114 15747.186867 2781.234171 15829.651031 2760.582417 15927.28549 C 2740.320317 16024.919948 2748.503088 16137.724701 2771.882433 16206.574499 C 2795.261778 16275.035314 2833.837698 16299.930156 2854.489453 16290.205609 C 2875.141208 16280.870043 2877.868798 16236.526106 2867.737748 16198.016897 C 2857.606699 16159.118706 2834.617009 16125.27728 2816.692845 16130.723027 C 2798.76868 16136.168774 2785.91004 16180.901693 2773.441056 16225.634612 " stroke="#231f20" stroke-width="46.778" stroke-opacity="1" stroke-miterlimit="22.926001"/><path stroke-linecap="butt" transform="matrix(0.00996532, 0, 0, -0.00998258, 140.360664, 276.531575)" fill="none" stroke-linejoin="miter" d="M 2746.897225 15237.900281 C 2702.994974 15289.161437 2659.484707 15340.813899 2623.422144 15420.640432 C 2587.751564 15500.466965 2560.312657 15608.467569 2514.450484 15724.68561 C 2468.980295 15840.90365 2405.08684 15965.339128 2338.841479 16067.470134 C 2272.204133 16169.992446 2203.214881 16250.210286 2147.945082 16275.253904 C 2092.675284 16299.906215 2051.124939 16269.775612 2057.788673 16241.992848 C 2064.844392 16214.210084 2120.114191 16189.166466 2151.864926 16192.296918 C 2184.007646 16195.036064 2192.239318 16225.166667 2200.47099 16255.688577 " stroke="#231f20" stroke-width="47.056" stroke-opacity="1" stroke-miterlimit="22.926001"/><path stroke-linecap="butt" transform="matrix(0.00950212, 0, 0, -0.00951859, 140.360664, 276.531575)" fill="none" stroke-linejoin="miter" d="M 2602.900638 16007.369791 C 2475.462032 16107.913226 2348.023426 16208.456662 2227.984481 16254.419375 C 2107.534444 16299.971707 1994.484068 16291.353698 1942.275349 16262.216621 C 1890.066629 16233.489925 1898.699567 16183.83378 1930.764765 16172.343101 C 1962.41887 16160.852423 2017.505235 16186.706449 2039.293126 16212.970857 C 2061.081017 16239.235264 2049.570433 16265.089291 2038.059849 16291.353698 " stroke="#231f20" stroke-width="49.352001" stroke-opacity="1" stroke-miterlimit="22.926001"/><g clip-path="url(#552fbeac0c)"><path stroke-linecap="butt" transform="matrix(0.0109695, 0, 0, -0.0109885, 140.360664, 276.531575)" fill="none" stroke-linejoin="miter" d="M 514.806377 13343.924997 C 461.747138 13506.737799 408.331796 13669.195113 385.541251 13830.941455 C 362.750705 13993.043283 370.228853 14153.723166 436.819979 14277.076969 C 503.411104 14400.075286 629.115208 14485.392038 763.721869 14536.937575 C 897.972428 14588.483113 1041.481645 14606.257436 1139.409772 14744.541671 C 1237.337898 14882.825906 1290.041035 15141.620053 1292.533751 15301.233476 C 1295.026467 15460.846899 1247.308762 15520.924112 1207.069204 15590.243973 C 1167.185749 15659.208347 1134.42434 15737.059883 1103.443442 15823.79858 C 1072.462544 15910.537278 1042.906055 16006.163137 1033.291293 16086.858565 C 1023.320429 16167.553992 1032.935191 16234.029961 1042.549952 16300.150444 " stroke="#231f20" stroke-width="42.747002" stroke-opacity="1" stroke-miterlimit="22.926001"/></g><path stroke-linecap="butt" transform="matrix(0.00934993, 0, 0, -0.00936613, 140.360664, 276.531575)" fill="none" stroke-linejoin="miter" d="M 4074.925038 16228.725087 C 3993.039418 16242.488111 3911.571583 16255.834074 3797.516613 16159.909968 C 3683.04386 16063.985863 3535.983972 15858.791689 3371.377166 15776.630607 C 3206.352576 15694.886587 3023.363284 15736.175658 2884.659072 15809.995513 C 2746.372644 15883.398307 2651.953511 15989.748946 2548.76092 16028.118588 C 2445.568328 16066.488231 2333.602277 16036.876876 2224.978497 16071.075905 C 2116.7725 16104.857873 2011.908773 16202.450224 1907.045047 16300.042575 " stroke="#231f20" stroke-width="50.153" stroke-opacity="1" stroke-miterlimit="22.926001"/><g clip-path="url(#07b5b5d6d8)"><path stroke-linecap="butt" transform="matrix(0.0110456, 0, 0, -0.0110647, 140.360664, 276.531575)" fill="none" stroke-linejoin="miter" d="M 4832.496352 16300.119218 C 4752.218038 16134.544677 4671.586074 15969.323173 4652.842679 15793.157509 C 4633.745636 15616.991846 4676.183511 15429.528986 4757.522772 15287.254913 C 4839.215682 15144.98084 4959.809978 15047.189479 4988.809193 14932.452324 C 5017.454759 14817.715168 4954.151595 14685.67918 4893.677622 14550.818892 C 4833.20365 14416.311642 4775.912518 14278.980093 4757.876421 14179.423546 C 4739.840324 14079.866998 4761.412911 14018.438491 4782.985497 13956.656945 " stroke="#231f20" stroke-width="42.453999" stroke-opacity="1" stroke-miterlimit="22.926001"/></g><g fill="#ffffff" fill-opacity="1"><g transform="translate(90.390858, 309.375037)"><g><path d="M 11.03125 -5.65625 C 11.03125 -4.875 10.878906 -4.109375 10.578125 -3.359375 C 10.273438 -2.609375 9.859375 -1.972656 9.328125 -1.453125 C 8.316406 -0.453125 6.878906 0.046875 5.015625 0.046875 C 4.660156 0.046875 4.300781 0.0351562 3.9375 0.015625 C 3.582031 0.00390625 3.226562 0 2.875 0 C 2.1875 0 1.507812 0.015625 0.84375 0.046875 L 0.84375 -0.296875 L 1.296875 -0.53125 C 1.535156 -0.65625 1.65625 -0.941406 1.65625 -1.390625 L 1.65625 -8.359375 C 1.65625 -8.742188 1.640625 -9.023438 1.609375 -9.203125 C 1.585938 -9.378906 1.519531 -9.5 1.40625 -9.5625 C 1.300781 -9.632812 1.132812 -9.671875 0.90625 -9.671875 L 0.328125 -9.71875 L 0.328125 -10.15625 C 1.335938 -10.132812 2.34375 -10.125 3.34375 -10.125 C 3.78125 -10.125 4.207031 -10.128906 4.625 -10.140625 C 5.050781 -10.148438 5.476562 -10.15625 5.90625 -10.15625 C 6.945312 -10.15625 7.847656 -9.96875 8.609375 -9.59375 C 9.367188 -9.226562 9.960938 -8.707031 10.390625 -8.03125 C 10.816406 -7.351562 11.03125 -6.5625 11.03125 -5.65625 Z M 9.453125 -5.265625 C 9.453125 -6.734375 9.109375 -7.8125 8.421875 -8.5 C 8.023438 -8.894531 7.503906 -9.171875 6.859375 -9.328125 C 6.222656 -9.492188 5.5 -9.578125 4.6875 -9.578125 C 4.320312 -9.578125 4.003906 -9.566406 3.734375 -9.546875 C 3.472656 -9.523438 3.25 -9.492188 3.0625 -9.453125 L 3.0625 -0.71875 C 3.25 -0.675781 3.460938 -0.644531 3.703125 -0.625 C 3.941406 -0.613281 4.226562 -0.609375 4.5625 -0.609375 C 5.125 -0.609375 5.601562 -0.640625 6 -0.703125 C 6.40625 -0.765625 6.765625 -0.863281 7.078125 -1 C 7.390625 -1.144531 7.691406 -1.335938 7.984375 -1.578125 C 8.960938 -2.378906 9.453125 -3.609375 9.453125 -5.265625 Z M 9.453125 -5.265625 "/></g></g></g><g fill="#ffffff" fill-opacity="1"><g transform="translate(113.511326, 309.375037)"><g><path d="M 8.40625 -2.40625 C 8.332031 -2.03125 8.273438 -1.640625 8.234375 -1.234375 C 8.191406 -0.835938 8.171875 -0.425781 8.171875 0 L 5.71875 0.046875 C 4.59375 0.015625 3.457031 0 2.3125 0 C 1.707031 0 1.101562 0.015625 0.5 0.046875 L 0.5 -0.390625 L 1.03125 -0.4375 C 1.257812 -0.457031 1.425781 -0.492188 1.53125 -0.546875 C 1.632812 -0.609375 1.703125 -0.726562 1.734375 -0.90625 C 1.765625 -1.09375 1.78125 -1.378906 1.78125 -1.765625 L 1.78125 -8.359375 C 1.78125 -8.742188 1.765625 -9.023438 1.734375 -9.203125 C 1.703125 -9.390625 1.628906 -9.515625 1.515625 -9.578125 C 1.410156 -9.640625 1.25 -9.671875 1.03125 -9.671875 L 0.328125 -9.71875 L 0.328125 -10.15625 C 1.191406 -10.132812 2.0625 -10.125 2.9375 -10.125 C 4.082031 -10.125 5.21875 -10.132812 6.34375 -10.15625 L 8.171875 -10.125 C 8.015625 -9.5 7.9375 -8.753906 7.9375 -7.890625 L 7.421875 -7.890625 L 7.421875 -8.84375 C 7.421875 -9.007812 7.394531 -9.117188 7.34375 -9.171875 C 7.300781 -9.234375 7.191406 -9.289062 7.015625 -9.34375 C 6.785156 -9.40625 6.476562 -9.453125 6.09375 -9.484375 C 5.707031 -9.523438 5.304688 -9.546875 4.890625 -9.546875 C 4.554688 -9.546875 4.289062 -9.539062 4.09375 -9.53125 C 3.894531 -9.53125 3.726562 -9.519531 3.59375 -9.5 C 3.46875 -9.488281 3.328125 -9.460938 3.171875 -9.421875 L 3.171875 -5.515625 C 3.492188 -5.492188 3.875 -5.476562 4.3125 -5.46875 C 4.757812 -5.457031 5.160156 -5.453125 5.515625 -5.453125 C 5.835938 -5.453125 6.078125 -5.484375 6.234375 -5.546875 C 6.390625 -5.609375 6.492188 -5.757812 6.546875 -6 C 6.585938 -6.144531 6.609375 -6.304688 6.609375 -6.484375 C 6.617188 -6.671875 6.625 -6.765625 6.625 -6.765625 L 7.0625 -6.765625 C 7.03125 -6.203125 7.015625 -5.632812 7.015625 -5.0625 C 7.015625 -4.53125 7.03125 -3.988281 7.0625 -3.4375 L 6.625 -3.4375 C 6.625 -3.4375 6.617188 -3.539062 6.609375 -3.75 C 6.597656 -3.957031 6.578125 -4.140625 6.546875 -4.296875 C 6.503906 -4.546875 6.398438 -4.695312 6.234375 -4.75 C 6.078125 -4.8125 5.835938 -4.84375 5.515625 -4.84375 L 3.171875 -4.796875 L 3.171875 -0.6875 C 3.390625 -0.644531 3.585938 -0.613281 3.765625 -0.59375 C 3.953125 -0.582031 4.238281 -0.578125 4.625 -0.578125 C 5.289062 -0.578125 5.867188 -0.59375 6.359375 -0.625 C 6.847656 -0.65625 7.171875 -0.695312 7.328125 -0.75 C 7.429688 -0.789062 7.523438 -0.914062 7.609375 -1.125 C 7.703125 -1.332031 7.769531 -1.59375 7.8125 -1.90625 L 7.890625 -2.40625 Z M 8.40625 -2.40625 "/></g></g></g><g fill="#ffffff" fill-opacity="1"><g transform="translate(134.238366, 309.375037)"><g><path d="M 10.375 -9.71875 L 9.921875 -9.671875 C 9.796875 -9.671875 9.675781 -9.59375 9.5625 -9.4375 C 9.445312 -9.289062 9.304688 -9.019531 9.140625 -8.625 L 6.578125 -2.4375 C 6.421875 -2.039062 6.285156 -1.707031 6.171875 -1.4375 C 6.066406 -1.175781 5.972656 -0.925781 5.890625 -0.6875 C 5.816406 -0.445312 5.734375 -0.175781 5.640625 0.125 L 4.90625 0.125 C 4.832031 -0.132812 4.757812 -0.375 4.6875 -0.59375 C 4.613281 -0.820312 4.523438 -1.066406 4.421875 -1.328125 C 4.328125 -1.597656 4.203125 -1.921875 4.046875 -2.296875 L 1.296875 -9.078125 C 1.203125 -9.296875 1.109375 -9.445312 1.015625 -9.53125 C 0.921875 -9.625 0.796875 -9.671875 0.640625 -9.671875 L 0.125 -9.71875 L 0.125 -10.15625 C 0.769531 -10.132812 1.421875 -10.125 2.078125 -10.125 C 2.734375 -10.125 3.382812 -10.132812 4.03125 -10.15625 L 4.03125 -9.71875 L 3.203125 -9.671875 C 3.003906 -9.671875 2.867188 -9.625 2.796875 -9.53125 C 2.734375 -9.4375 2.722656 -9.332031 2.765625 -9.21875 L 5.65625 -1.78125 L 8.34375 -8.71875 C 8.445312 -8.976562 8.476562 -9.203125 8.4375 -9.390625 C 8.394531 -9.578125 8.234375 -9.671875 7.953125 -9.671875 L 7.203125 -9.71875 L 7.203125 -10.15625 C 7.722656 -10.132812 8.25 -10.125 8.78125 -10.125 C 9.3125 -10.125 9.84375 -10.132812 10.375 -10.15625 Z M 10.375 -9.71875 "/></g></g></g><g fill="#ffffff" fill-opacity="1"><g transform="translate(156.595285, 309.375037)"><g/></g></g><g fill="#ffffff" fill-opacity="1"><g transform="translate(172.021525, 309.375037)"><g><path d="M 4.5625 -9.71875 L 3.859375 -9.671875 C 3.640625 -9.671875 3.472656 -9.640625 3.359375 -9.578125 C 3.253906 -9.515625 3.1875 -9.390625 3.15625 -9.203125 C 3.125 -9.023438 3.109375 -8.742188 3.109375 -8.359375 L 3.109375 -1.71875 C 3.109375 -1.132812 3.082031 -0.640625 3.03125 -0.234375 C 2.976562 0.160156 2.890625 0.503906 2.765625 0.796875 C 2.640625 1.085938 2.453125 1.378906 2.203125 1.671875 C 2.015625 1.910156 1.796875 2.125 1.546875 2.3125 C 1.296875 2.5 1.050781 2.640625 0.8125 2.734375 C 0.570312 2.835938 0.367188 2.878906 0.203125 2.859375 L -0.140625 2.8125 L -0.21875 1.703125 L -0.0625 1.609375 C 0.257812 1.804688 0.585938 1.90625 0.921875 1.90625 C 1.210938 1.90625 1.414062 1.78125 1.53125 1.53125 C 1.65625 1.289062 1.71875 0.863281 1.71875 0.25 L 1.71875 -8.359375 C 1.71875 -8.742188 1.703125 -9.023438 1.671875 -9.203125 C 1.640625 -9.390625 1.570312 -9.515625 1.46875 -9.578125 C 1.363281 -9.640625 1.195312 -9.671875 0.96875 -9.671875 L 0.265625 -9.71875 L 0.265625 -10.15625 C 0.984375 -10.132812 1.695312 -10.125 2.40625 -10.125 C 3.132812 -10.125 3.851562 -10.132812 4.5625 -10.15625 Z M 4.5625 -9.71875 "/></g></g></g><g fill="#ffffff" fill-opacity="1"><g transform="translate(188.666509, 309.375037)"><g><path d="M 4.625 0.046875 C 3.90625 0.015625 3.1875 0 2.46875 0 C 1.757812 0 1.046875 0.015625 0.328125 0.046875 L 0.328125 -0.390625 L 1.03125 -0.4375 C 1.25 -0.457031 1.410156 -0.492188 1.515625 -0.546875 C 1.628906 -0.597656 1.703125 -0.71875 1.734375 -0.90625 C 1.765625 -1.09375 1.78125 -1.378906 1.78125 -1.765625 L 1.78125 -8.359375 C 1.78125 -8.742188 1.765625 -9.023438 1.734375 -9.203125 C 1.703125 -9.390625 1.628906 -9.515625 1.515625 -9.578125 C 1.410156 -9.640625 1.25 -9.671875 1.03125 -9.671875 L 0.328125 -9.71875 L 0.328125 -10.15625 C 1.046875 -10.132812 1.757812 -10.125 2.46875 -10.125 C 3.1875 -10.125 3.90625 -10.132812 4.625 -10.15625 L 4.625 -9.71875 L 3.921875 -9.671875 C 3.691406 -9.671875 3.523438 -9.640625 3.421875 -9.578125 C 3.316406 -9.515625 3.25 -9.390625 3.21875 -9.203125 C 3.1875 -9.023438 3.171875 -8.742188 3.171875 -8.359375 L 3.171875 -1.765625 C 3.171875 -1.378906 3.1875 -1.09375 3.21875 -0.90625 C 3.25 -0.71875 3.316406 -0.597656 3.421875 -0.546875 C 3.523438 -0.492188 3.691406 -0.457031 3.921875 -0.4375 L 4.625 -0.390625 Z M 4.625 0.046875 "/></g></g></g><g fill="#ffffff" fill-opacity="1"><g transform="translate(205.370213, 309.375037)"><g><path d="M 11.9375 -9.71875 L 11.296875 -9.671875 C 11.066406 -9.671875 10.898438 -9.632812 10.796875 -9.5625 C 10.691406 -9.5 10.625 -9.378906 10.59375 -9.203125 C 10.5625 -9.023438 10.546875 -8.742188 10.546875 -8.359375 L 10.546875 -0.25 C 10.546875 -0.175781 10.550781 -0.0859375 10.5625 0.015625 C 10.582031 0.117188 10.59375 0.210938 10.59375 0.296875 L 9.265625 0.0625 L 2.328125 -8.5625 L 2.328125 -1.765625 C 2.328125 -1.378906 2.335938 -1.09375 2.359375 -0.90625 C 2.390625 -0.726562 2.457031 -0.609375 2.5625 -0.546875 C 2.675781 -0.492188 2.84375 -0.457031 3.0625 -0.4375 L 3.71875 -0.390625 L 3.71875 0.046875 C 3.125 0.015625 2.535156 0 1.953125 0 C 1.390625 0 0.820312 0.015625 0.25 0.046875 L 0.25 -0.390625 L 0.890625 -0.4375 C 1.117188 -0.457031 1.285156 -0.492188 1.390625 -0.546875 C 1.503906 -0.609375 1.570312 -0.726562 1.59375 -0.90625 C 1.625 -1.09375 1.640625 -1.378906 1.640625 -1.765625 L 1.640625 -8.359375 C 1.640625 -8.742188 1.625 -9.023438 1.59375 -9.203125 C 1.570312 -9.378906 1.503906 -9.5 1.390625 -9.5625 C 1.285156 -9.632812 1.117188 -9.671875 0.890625 -9.671875 L 0.25 -9.71875 L 0.25 -10.15625 C 0.25 -10.15625 0.347656 -10.148438 0.546875 -10.140625 C 0.742188 -10.140625 0.976562 -10.132812 1.25 -10.125 C 1.53125 -10.125 1.785156 -10.125 2.015625 -10.125 C 2.171875 -10.125 2.34375 -10.128906 2.53125 -10.140625 C 2.71875 -10.148438 2.8125 -10.15625 2.8125 -10.15625 L 9.875 -1.4375 L 9.875 -8.359375 C 9.875 -8.742188 9.859375 -9.023438 9.828125 -9.203125 C 9.796875 -9.378906 9.722656 -9.5 9.609375 -9.5625 C 9.503906 -9.632812 9.34375 -9.671875 9.125 -9.671875 L 8.46875 -9.71875 L 8.46875 -10.15625 C 9.050781 -10.132812 9.617188 -10.125 10.171875 -10.125 C 10.765625 -10.125 11.351562 -10.132812 11.9375 -10.15625 Z M 11.9375 -9.71875 "/></g></g></g><g fill="#ffffff" fill-opacity="1"><g transform="translate(229.327662, 309.375037)"><g><path d="M 11.03125 -5.65625 C 11.03125 -4.875 10.878906 -4.109375 10.578125 -3.359375 C 10.273438 -2.609375 9.859375 -1.972656 9.328125 -1.453125 C 8.316406 -0.453125 6.878906 0.046875 5.015625 0.046875 C 4.660156 0.046875 4.300781 0.0351562 3.9375 0.015625 C 3.582031 0.00390625 3.226562 0 2.875 0 C 2.1875 0 1.507812 0.015625 0.84375 0.046875 L 0.84375 -0.296875 L 1.296875 -0.53125 C 1.535156 -0.65625 1.65625 -0.941406 1.65625 -1.390625 L 1.65625 -8.359375 C 1.65625 -8.742188 1.640625 -9.023438 1.609375 -9.203125 C 1.585938 -9.378906 1.519531 -9.5 1.40625 -9.5625 C 1.300781 -9.632812 1.132812 -9.671875 0.90625 -9.671875 L 0.328125 -9.71875 L 0.328125 -10.15625 C 1.335938 -10.132812 2.34375 -10.125 3.34375 -10.125 C 3.78125 -10.125 4.207031 -10.128906 4.625 -10.140625 C 5.050781 -10.148438 5.476562 -10.15625 5.90625 -10.15625 C 6.945312 -10.15625 7.847656 -9.96875 8.609375 -9.59375 C 9.367188 -9.226562 9.960938 -8.707031 10.390625 -8.03125 C 10.816406 -7.351562 11.03125 -6.5625 11.03125 -5.65625 Z M 9.453125 -5.265625 C 9.453125 -6.734375 9.109375 -7.8125 8.421875 -8.5 C 8.023438 -8.894531 7.503906 -9.171875 6.859375 -9.328125 C 6.222656 -9.492188 5.5 -9.578125 4.6875 -9.578125 C 4.320312 -9.578125 4.003906 -9.566406 3.734375 -9.546875 C 3.472656 -9.523438 3.25 -9.492188 3.0625 -9.453125 L 3.0625 -0.71875 C 3.25 -0.675781 3.460938 -0.644531 3.703125 -0.625 C 3.941406 -0.613281 4.226562 -0.609375 4.5625 -0.609375 C 5.125 -0.609375 5.601562 -0.640625 6 -0.703125 C 6.40625 -0.765625 6.765625 -0.863281 7.078125 -1 C 7.390625 -1.144531 7.691406 -1.335938 7.984375 -1.578125 C 8.960938 -2.378906 9.453125 -3.609375 9.453125 -5.265625 Z M 9.453125 -5.265625 "/></g></g></g><g fill="#ffffff" fill-opacity="1"><g transform="translate(252.448136, 309.375037)"><g><path d="M 11.109375 0.046875 C 10.484375 0.015625 9.859375 0 9.234375 0 C 8.546875 0 7.867188 0.015625 7.203125 0.046875 L 7.203125 -0.390625 L 7.890625 -0.4375 C 8.078125 -0.457031 8.222656 -0.488281 8.328125 -0.53125 C 8.429688 -0.582031 8.484375 -0.648438 8.484375 -0.734375 C 8.484375 -0.804688 8.460938 -0.90625 8.421875 -1.03125 C 8.390625 -1.15625 8.3125 -1.367188 8.1875 -1.671875 L 7.5 -3.359375 L 3.28125 -3.359375 L 2.859375 -2.375 C 2.703125 -2.019531 2.578125 -1.695312 2.484375 -1.40625 C 2.390625 -1.113281 2.34375 -0.921875 2.34375 -0.828125 C 2.34375 -0.703125 2.394531 -0.609375 2.5 -0.546875 C 2.613281 -0.492188 2.800781 -0.457031 3.0625 -0.4375 L 3.59375 -0.390625 L 3.59375 0.046875 C 3.007812 0.015625 2.421875 0 1.828125 0 C 1.285156 0 0.75 0.015625 0.21875 0.046875 L 0.21875 -0.390625 L 0.765625 -0.4375 C 1.085938 -0.46875 1.351562 -0.707031 1.5625 -1.15625 L 4.796875 -8.53125 C 5.085938 -9.15625 5.28125 -9.601562 5.375 -9.875 C 5.46875 -10.144531 5.515625 -10.28125 5.515625 -10.28125 L 6 -10.28125 L 9.546875 -1.9375 C 9.722656 -1.539062 9.863281 -1.234375 9.96875 -1.015625 C 10.082031 -0.804688 10.179688 -0.660156 10.265625 -0.578125 C 10.359375 -0.492188 10.472656 -0.445312 10.609375 -0.4375 L 11.109375 -0.390625 Z M 7.234375 -3.953125 L 5.390625 -8.328125 L 3.53125 -3.953125 Z M 7.234375 -3.953125 "/></g></g></g><g fill="#ffffff" fill-opacity="1"><g transform="translate(275.627342, 309.375037)"><g><path d="M 8.609375 -2.53125 C 8.554688 -2.050781 8.515625 -1.664062 8.484375 -1.375 C 8.453125 -1.082031 8.421875 -0.832031 8.390625 -0.625 C 8.367188 -0.425781 8.335938 -0.21875 8.296875 0 C 7.796875 0.0078125 7.410156 0.015625 7.140625 0.015625 C 6.878906 0.0234375 6.679688 0.03125 6.546875 0.03125 C 6.410156 0.0390625 6.296875 0.046875 6.203125 0.046875 C 6.109375 0.046875 5.984375 0.046875 5.828125 0.046875 C 5.265625 0.046875 4.695312 0.0351562 4.125 0.015625 C 3.5625 0.00390625 2.988281 0 2.40625 0 C 1.925781 0 1.441406 0.015625 0.953125 0.046875 L 0.953125 -0.296875 L 1.40625 -0.53125 C 1.65625 -0.65625 1.78125 -0.941406 1.78125 -1.390625 L 1.78125 -8.359375 C 1.78125 -8.742188 1.765625 -9.023438 1.734375 -9.203125 C 1.703125 -9.390625 1.628906 -9.515625 1.515625 -9.578125 C 1.410156 -9.640625 1.25 -9.671875 1.03125 -9.671875 L 0.328125 -9.71875 L 0.328125 -10.15625 C 1.046875 -10.132812 1.757812 -10.125 2.46875 -10.125 C 3.1875 -10.125 3.90625 -10.132812 4.625 -10.15625 L 4.625 -9.71875 L 3.921875 -9.671875 C 3.691406 -9.671875 3.523438 -9.640625 3.421875 -9.578125 C 3.316406 -9.515625 3.25 -9.390625 3.21875 -9.203125 C 3.1875 -9.023438 3.171875 -8.742188 3.171875 -8.359375 L 3.171875 -0.6875 C 3.515625 -0.613281 3.929688 -0.578125 4.421875 -0.578125 C 5.296875 -0.578125 6.023438 -0.597656 6.609375 -0.640625 C 7.191406 -0.691406 7.535156 -0.757812 7.640625 -0.84375 C 7.722656 -0.90625 7.828125 -1.222656 7.953125 -1.796875 L 8.140625 -2.53125 Z M 8.609375 -2.53125 "/></g></g></g></svg>